{
  "accessors": [
    {
      "bufferView": 1,
      "componentType": 5126,
      "count": 2822,
      "max": [
        10.030111312866211,
        2.89290714263916,
        4.514310836791992
      ],
      "min": [
        5.567792892456055,
        1.6195530891418457,
        3.550642967224121
      ],
      "type": "VEC3"
    },
    {
      "bufferView": 1,
      "byteOffset": 33864,
      "componentType": 5126,
      "count": 2822,
      "max": [
        0.9998524188995361,
        0.9986281394958496,
        0.9997178912162781
      ],
      "min": [
        -0.9996471405029297,
        -0.9998385310173035,
        -0.998464047908783
      ],
      "type": "VEC3"
    },
    {
      "bufferView": 2,
      "componentType": 5126,
      "count": 2822,
      "max": [
        0.04313725605607033,
        0.20392157137393951,
        0.32156863808631897,
        1.0
      ],
      "min": [
        0.0,
        0.0,
        0.0,
        1.0
      ],
      "type": "VEC4"
    },
    {
      "bufferView": 0,
      "componentType": 5125,
      "count": 16674,
      "type": "SCALAR"
    },
    {
      "bufferView": 1,
      "byteOffset": 67728,
      "componentType": 5126,
      "count": 65532,
      "max": [
        11.78973388671875,
        9.753133773803711,
        13.584465026855469
      ],
      "min": [
        1.2029733657836914,
        0.0,
        3.8220019340515137
      ],
      "type": "VEC3"
    },
    {
      "bufferView": 1,
      "byteOffset": 854112,
      "componentType": 5126,
      "count": 65532,
      "max": [
        0.9999883770942688,
        0.9997866153717041,
        0.9999719858169556
      ],
      "min": [
        -0.9999806880950928,
        -0.9999704957008362,
        -0.9999927878379822
      ],
      "type": "VEC3"
    },
    {
      "bufferView": 2,
      "byteOffset": 45152,
      "componentType": 5126,
      "count": 65532,
      "max": [
        0.9450980424880981,
        0.9764705896377563,
        0.9960784316062927,
        1.0
      ],
      "min": [
        0.019607843831181526,
        0.0313725508749485,
        0.05882352963089943,
        1.0
      ],
      "type": "VEC4"
    },
    {
      "bufferView": 0,
      "byteOffset": 66696,
      "componentType": 5125,
      "count": 344982,
      "type": "SCALAR"
    },
    {
      "bufferView": 1,
      "byteOffset": 1640496,
      "componentType": 5126,
      "count": 65532,
      "max": [
        12.232397079467773,
        8.175352096557617,
        13.913869857788086
      ],
      "min": [
        4.386381149291992,
        0.2259688377380371,
        3.951176881790161
      ],
      "type": "VEC3"
    },
    {
      "bufferView": 1,
      "byteOffset": 2426880,
      "componentType": 5126,
      "count": 65532,
      "max": [
        0.9999796152114868,
        0.9994892477989197,
        0.9994001388549805
      ],
      "min": [
        -0.9997224807739258,
        -0.9999193549156189,
        -0.9999927282333374
      ],
      "type": "VEC3"
    },
    {
      "bufferView": 2,
      "byteOffset": 1093664,
      "componentType": 5126,
      "count": 65532,
      "max": [
        0.843137264251709,
        0.9607843160629272,
        0.9882352948188782,
        1.0
      ],
      "min": [
        0.019607843831181526,
        0.03529411926865578,
        0.05882352963089943,
        1.0
      ],
      "type": "VEC4"
    },
    {
      "bufferView": 0,
      "byteOffset": 1446624,
      "componentType": 5125,
      "count": 326076,
      "type": "SCALAR"
    },
    {
      "bufferView": 1,
      "byteOffset": 3213264,
      "componentType": 5126,
      "count": 65532,
      "max": [
        15.598755836486816,
        10.191183090209961,
        17.713481903076172
      ],
      "min": [
        4.070876121520996,
        1.0221343040466309,
        1.5082311630249023
      ],
      "type": "VEC3"
    },
    {
      "bufferView": 1,
      "byteOffset": 3999648,
      "componentType": 5126,
      "count": 65532,
      "max": [
        0.9998055696487427,
        0.9999792575836182,
        0.9995927810668945
      ],
      "min": [
        -0.9997391700744629,
        -0.9999600648880005,
        -0.9999816417694092
      ],
      "type": "VEC3"
    },
    {
      "bufferView": 2,
      "byteOffset": 2142176,
      "componentType": 5126,
      "count": 65532,
      "max": [
        0.9372549057006836,
        0.9725490212440491,
        0.9960784316062927,
        1.0
      ],
      "min": [
        0.019607843831181526,
        0.03529411926865578,
        0.062745101749897,
        1.0
      ],
      "type": "VEC4"
    },
    {
      "bufferView": 0,
      "byteOffset": 2750928,
      "componentType": 5125,
      "count": 322311,
      "type": "SCALAR"
    },
    {
      "bufferView": 1,
      "byteOffset": 4786032,
      "componentType": 5126,
      "count": 65532,
      "max": [
        15.565597534179688,
        9.741533279418945,
        17.63273048400879
      ],
      "min": [
        4.298689842224121,
        1.419398307800293,
        0.0
      ],
      "type": "VEC3"
    },
    {
      "bufferView": 1,
      "byteOffset": 5572416,
      "componentType": 5126,
      "count": 65532,
      "max": [
        0.9999849796295166,
        0.9999792575836182,
        0.9999912977218628
      ],
      "min": [
        -0.9999889135360718,
        -0.9999974966049194,
        -0.9999980330467224
      ],
      "type": "VEC3"
    },
    {
      "bufferView": 2,
      "byteOffset": 3190688,
      "componentType": 5126,
      "count": 65532,
      "max": [
        0.6705882549285889,
        0.6745098233222961,
        0.9411764740943909,
        1.0
      ],
      "min": [
        0.01568627543747425,
        0.03921568766236305,
        0.06666667014360428,
        1.0
      ],
      "type": "VEC4"
    },
    {
      "bufferView": 0,
      "byteOffset": 4040172,
      "componentType": 5125,
      "count": 297924,
      "type": "SCALAR"
    },
    {
      "bufferView": 1,
      "byteOffset": 6358800,
      "componentType": 5126,
      "count": 65532,
      "max": [
        14.411197662353516,
        11.480937957763672,
        15.366626739501953
      ],
      "min": [
        2.6562628746032715,
        1.7136650085449219,
        0.012691974639892578
      ],
      "type": "VEC3"
    },
    {
      "bufferView": 1,
      "byteOffset": 7145184,
      "componentType": 5126,
      "count": 65532,
      "max": [
        0.9999601244926453,
        0.999819815158844,
        0.9999912977218628
      ],
      "min": [
        -0.9999843835830688,
        -0.9999624490737915,
        -0.9999980330467224
      ],
      "type": "VEC3"
    },
    {
      "bufferView": 2,
      "byteOffset": 4239200,
      "componentType": 5126,
      "count": 65532,
      "max": [
        0.9490196108818054,
        0.9764705896377563,
        0.9960784316062927,
        1.0
      ],
      "min": [
        0.01568627543747425,
        0.03529411926865578,
        0.062745101749897,
        1.0
      ],
      "type": "VEC4"
    },
    {
      "bufferView": 0,
      "byteOffset": 5231868,
      "componentType": 5125,
      "count": 297249,
      "type": "SCALAR"
    },
    {
      "bufferView": 1,
      "byteOffset": 7931568,
      "componentType": 5126,
      "count": 65532,
      "max": [
        10.627634048461914,
        11.350455284118652,
        12.785323143005371
      ],
      "min": [
        1.7293548583984375,
        3.611691951751709,
        0.0003299713134765625
      ],
      "type": "VEC3"
    },
    {
      "bufferView": 1,
      "byteOffset": 8717952,
      "componentType": 5126,
      "count": 65532,
      "max": [
        0.9999273419380188,
        0.9999803304672241,
        0.9998748898506165
      ],
      "min": [
        -0.9998732209205627,
        -0.9998056888580322,
        -1.0
      ],
      "type": "VEC3"
    },
    {
      "bufferView": 2,
      "byteOffset": 5287712,
      "componentType": 5126,
      "count": 65532,
      "max": [
        0.43529412150382996,
        0.6784313917160034,
        0.9411764740943909,
        1.0
      ],
      "min": [
        0.01568627543747425,
        0.06666667014360428,
        0.1725490242242813,
        1.0
      ],
      "type": "VEC4"
    },
    {
      "bufferView": 0,
      "byteOffset": 6420864,
      "componentType": 5125,
      "count": 327234,
      "type": "SCALAR"
    },
    {
      "bufferView": 1,
      "byteOffset": 9504336,
      "componentType": 5126,
      "count": 65532,
      "max": [
        9.352493286132813,
        11.48013687133789,
        17.58263397216797
      ],
      "min": [
        0.02244091033935547,
        5.399229049682617,
        0.0001239776611328125
      ],
      "type": "VEC3"
    },
    {
      "bufferView": 1,
      "byteOffset": 10290720,
      "componentType": 5126,
      "count": 65532,
      "max": [
        0.9999273419380188,
        0.9999949336051941,
        0.9998909831047058
      ],
      "min": [
        -0.9999932050704956,
        -0.9999862313270569,
        -0.9999960660934448
      ],
      "type": "VEC3"
    },
    {
      "bufferView": 2,
      "byteOffset": 6336224,
      "componentType": 5126,
      "count": 65532,
      "max": [
        0.686274528503418,
        0.3960784375667572,
        0.7490196228027344,
        1.0
      ],
      "min": [
        0.01568627543747425,
        0.062745101749897,
        0.16862745583057404,
        1.0
      ],
      "type": "VEC4"
    },
    {
      "bufferView": 0,
      "byteOffset": 7729800,
      "componentType": 5125,
      "count": 315279,
      "type": "SCALAR"
    },
    {
      "bufferView": 1,
      "byteOffset": 11077104,
      "componentType": 5126,
      "count": 65532,
      "max": [
        11.662651062011719,
        11.480937957763672,
        17.714035034179688
      ],
      "min": [
        0.0,
        2.5789051055908203,
        0.07199382781982422
      ],
      "type": "VEC3"
    },
    {
      "bufferView": 1,
      "byteOffset": 11863488,
      "componentType": 5126,
      "count": 65532,
      "max": [
        0.9915886521339417,
        0.9999949336051941,
        0.9995246529579163
      ],
      "min": [
        -0.9999417066574097,
        -0.9999971389770508,
        -0.999980628490448
      ],
      "type": "VEC3"
    },
    {
      "bufferView": 2,
      "byteOffset": 7384736,
      "componentType": 5126,
      "count": 65532,
      "max": [
        0.686274528503418,
        0.6705882549285889,
        0.9254902005195618,
        1.0
      ],
      "min": [
        0.027450980618596077,
        0.10196078568696976,
        0.24313725531101227,
        1.0
      ],
      "type": "VEC4"
    },
    {
      "bufferView": 0,
      "byteOffset": 8990916,
      "componentType": 5125,
      "count": 305013,
      "type": "SCALAR"
    },
    {
      "bufferView": 1,
      "byteOffset": 12649872,
      "componentType": 5126,
      "count": 65532,
      "max": [
        11.821758270263672,
        9.90556812286377,
        13.759517669677734
      ],
      "min": [
        3.8491201400756836,
        2.489075183868408,
        0.04167795181274414
      ],
      "type": "VEC3"
    },
    {
      "bufferView": 1,
      "byteOffset": 13436256,
      "componentType": 5126,
      "count": 65532,
      "max": [
        0.9999344944953918,
        0.9999831914901733,
        0.999943196773529
      ],
      "min": [
        -0.9999889135360718,
        -0.9996128082275391,
        -0.9999264478683472
      ],
      "type": "VEC3"
    },
    {
      "bufferView": 2,
      "byteOffset": 8433248,
      "componentType": 5126,
      "count": 65532,
      "max": [
        0.658823549747467,
        0.686274528503418,
        0.9490196108818054,
        1.0
      ],
      "min": [
        0.019607843831181526,
        0.03529411926865578,
        0.062745101749897,
        1.0
      ],
      "type": "VEC4"
    },
    {
      "bufferView": 0,
      "byteOffset": 10210968,
      "componentType": 5125,
      "count": 293706,
      "type": "SCALAR"
    },
    {
      "bufferView": 1,
      "byteOffset": 14222640,
      "componentType": 5126,
      "count": 1140,
      "max": [
        11.122015953063965,
        8.064618110656738,
        8.67385482788086
      ],
      "min": [
        4.823729991912842,
        2.642949104309082,
        3.178004026412964
      ],
      "type": "VEC3"
    },
    {
      "bufferView": 1,
      "byteOffset": 14236320,
      "componentType": 5126,
      "count": 1140,
      "max": [
        0.995374321937561,
        0.9257997274398804,
        0.9992382526397705
      ],
      "min": [
        -0.8227776288986206,
        -0.9388424754142761,
        -0.9999291300773621
      ],
      "type": "VEC3"
    },
    {
      "bufferView": 2,
      "byteOffset": 9481760,
      "componentType": 5126,
      "count": 1140,
      "max": [
        0.572549045085907,
        0.6392157077789307,
        0.9176470637321472,
        1.0
      ],
      "min": [
        0.125490203499794,
        0.14901961386203766,
        0.364705890417099,
        1.0
      ],
      "type": "VEC4"
    },
    {
      "bufferView": 0,
      "byteOffset": 11385792,
      "componentType": 5125,
      "count": 2976,
      "type": "SCALAR"
    }
  ],
  "asset": {
    "extras": {
      "author": "Bema (https://sketchfab.com/Nastya.)",
      "license": "CC-BY-4.0 (http://creativecommons.org/licenses/by/4.0/)",
      "source": "https://sketchfab.com/3d-models/stitch-fan-art-65880617586342db903f9236c014aeab",
      "title": "Stitch (Fan Art)"
    },
    "generator": "Sketchfab-12.67.0",
    "version": "2.0"
  },
  "bufferViews": [
    {
      "buffer": 0,
      "byteLength": 11397696,
      "name": "floatBufferViews",
      "target": 34963
    },
    {
      "buffer": 0,
      "byteLength": 14250000,
      "byteOffset": 11397696,
      "byteStride": 12,
      "name": "floatBufferViews",
      "target": 34962
    },
    {
      "buffer": 0,
      "byteLength": 9500000,
      "byteOffset": 25647696,
      "byteStride": 16,
      "name": "floatBufferViews",
      "target": 34962
    }
  ],
  "buffers": [
    {
      "byteLength": 35147696,
      "uri": "scene.bin"
    }
  ],
  "materials": [
    {
      "doubleSided": true,
      "name": "Scene_-_Root",
      "pbrMetallicRoughness": {
        "metallicFactor": 0.0
      }
    }
  ],
  "meshes": [
    {
      "name": "Object_0",
      "primitives": [
        {
          "attributes": {
            "COLOR_0": 2,
            "NORMAL": 1,
            "POSITION": 0
          },
          "indices": 3,
          "material": 0,
          "mode": 4
        }
      ]
    },
    {
      "name": "Object_1",
      "primitives": [
        {
          "attributes": {
            "COLOR_0": 6,
            "NORMAL": 5,
            "POSITION": 4
          },
          "indices": 7,
          "material": 0,
          "mode": 4
        }
      ]
    },
    {
      "name": "Object_2",
      "primitives": [
        {
          "attributes": {
            "COLOR_0": 10,
            "NORMAL": 9,
            "POSITION": 8
          },
          "indices": 11,
          "material": 0,
          "mode": 4
        }
      ]
    },
    {
      "name": "Object_3",
      "primitives": [
        {
          "attributes": {
            "COLOR_0": 14,
            "NORMAL": 13,
            "POSITION": 12
          },
          "indices": 15,
          "material": 0,
          "mode": 4
        }
      ]
    },
    {
      "name": "Object_4",
      "primitives": [
        {
          "attributes": {
            "COLOR_0": 18,
            "NORMAL": 17,
            "POSITION": 16
          },
          "indices": 19,
          "material": 0,
          "mode": 4
        }
      ]
    },
    {
      "name": "Object_5",
      "primitives": [
        {
          "attributes": {
            "COLOR_0": 22,
            "NORMAL": 21,
            "POSITION": 20
          },
          "indices": 23,
          "material": 0,
          "mode": 4
        }
      ]
    },
    {
      "name": "Object_6",
      "primitives": [
        {
          "attributes": {
            "COLOR_0": 26,
            "NORMAL": 25,
            "POSITION": 24
          },
          "indices": 27,
          "material": 0,
          "mode": 4
        }
      ]
    },
    {
      "name": "Object_7",
      "primitives": [
        {
          "attributes": {
            "COLOR_0": 30,
            "NORMAL": 29,
            "POSITION": 28
          },
          "indices": 31,
          "material": 0,
          "mode": 4
        }
      ]
    },
    {
      "name": "Object_8",
      "primitives": [
        {
          "attributes": {
            "COLOR_0": 34,
            "NORMAL": 33,
            "POSITION": 32
          },
          "indices": 35,
          "material": 0,
          "mode": 4
        }
      ]
    },
    {
      "name": "Object_9",
      "primitives": [
        {
          "attributes": {
            "COLOR_0": 38,
            "NORMAL": 37,
            "POSITION": 36
          },
          "indices": 39,
          "material": 0,
          "mode": 4
        }
      ]
    },
    {
      "name": "Object_10",
      "primitives": [
        {
          "attributes": {
            "COLOR_0": 42,
            "NORMAL": 41,
            "POSITION": 40
          },
          "indices": 43,
          "material": 0,
          "mode": 4
        }
      ]
    }
  ],
  "nodes": [
    {
      "children": [
        1
      ],
      "matrix": [
        0.07359464466571808,
        0.0,
        0.0,
        0.0,
        0.0,
        1.6341293799397434e-17,
        -0.07359464466571808,
        0.0,
        0.0,
        0.07359464466571808,
        1.6341293799397434e-17,
        0.0,
        0.0,
        0.0,
        0.0,
        1.0
      ],
      "name": "Sketchfab_model"
    },
    {
      "children": [
        2
      ],
      "matrix": [
        1.0,
        0.0,
        0.0,
        0.0,
        0.0,
        1.0,
        0.0,
        0.0,
        0.0,
        0.0,
        1.0,
        0.0,
        -9.890850067138672,
        -5.550929069519043,
        -5.970942974090576,
        1.0
      ],
      "name": "stitch.obj.cleaner.materialmerger.gles"
    },
    {
      "children": [
        3,
        4,
        5,
        6,
        7,
        8,
        9,
        10,
        11,
        12,
        13
      ],
      "name": "Object_2"
    },
    {
      "mesh": 0,
      "name": "Object_3"
    },
    {
      "mesh": 1,
      "name": "Object_4"
    },
    {
      "mesh": 2,
      "name": "Object_5"
    },
    {
      "mesh": 3,
      "name": "Object_6"
    },
    {
      "mesh": 4,
      "name": "Object_7"
    },
    {
      "mesh": 5,
      "name": "Object_8"
    },
    {
      "mesh": 6,
      "name": "Object_9"
    },
    {
      "mesh": 7,
      "name": "Object_10"
    },
    {
      "mesh": 8,
      "name": "Object_11"
    },
    {
      "mesh": 9,
      "name": "Object_12"
    },
    {
      "mesh": 10,
      "name": "Object_13"
    }
  ],
  "scene": 0,
  "scenes": [
    {
      "name": "Sketchfab_Scene",
      "nodes": [
        0
      ]
    }
  ]
}
